<svg viewBox="0 0 100 120" xmlns="http://www.w3.org/2000/svg">
  <!-- Bambu - höga smala stavar -->
  <!-- Kruka -->
  <ellipse cx="50" cy="105" rx="18" ry="8" fill="#8B4513"/>
  <rect x="32" y="97" width="36" height="16" fill="#8B4513" rx="2"/>
  
  <!-- Bambustavar -->
  <rect x="45" y="20" width="4" height="85" fill="#228B22" rx="2"/>
  <rect x="50" y="15" width="4" height="90" fill="#2E7D32" rx="2"/>
  <rect x="55" y="25" width="4" height="80" fill="#388E3C" rx="2"/>
  
  <!-- Bambusegment (ringar) -->
  <line x1="44" y1="35" x2="50" y2="35" stroke="#1B5E20" stroke-width="2"/>
  <line x1="44" y1="55" x2="50" y2="55" stroke="#1B5E20" stroke-width="2"/>
  <line x1="44" y1="75" x2="50" y2="75" stroke="#1B5E20" stroke-width="2"/>
  
  <line x1="49" y1="30" x2="55" y2="30" stroke="#1B5E20" stroke-width="2"/>
  <line x1="49" y1="50" x2="55" y2="50" stroke="#1B5E20" stroke-width="2"/>
  <line x1="49" y1="70" x2="55" y2="70" stroke="#1B5E20" stroke-width="2"/>
  
  <!-- Bambublad -->
  <ellipse cx="42" cy="25" rx="8" ry="3" fill="#9ACD32" transform="rotate(-45 42 25)"/>
  <ellipse cx="58" cy="20" rx="8" ry="3" fill="#9ACD32" transform="rotate(30 58 20)"/>
  <ellipse cx="40" cy="45" rx="7" ry="3" fill="#9ACD32" transform="rotate(-30 40 45)"/>
  <ellipse cx="60" cy="35" rx="7" ry="3" fill="#9ACD32" transform="rotate(45 60 35)"/>
  
  <!-- Text -->
  <text x="50" y="115" text-anchor="middle" fill="#2c3e50" font-family="Arial, sans-serif" font-size="8">🎋 Bambu</text>
</svg>