<svg viewBox="0 0 100 120" xmlns="http://www.w3.org/2000/svg">
  <!-- Kaktus - cylindrisk med taggar -->
  <!-- Kruka -->
  <ellipse cx="50" cy="105" rx="16" ry="7" fill="#CD853F"/>
  <rect x="34" y="98" width="32" height="14" fill="#CD853F" rx="2"/>
  
  <!-- Huvudkaktus -->
  <ellipse cx="50" cy="60" rx="12" ry="45" fill="#228B22"/>
  
  <!-- Kaktusringar -->
  <ellipse cx="50" cy="35" rx="12" ry="2" fill="none" stroke="#1B5E20" stroke-width="1"/>
  <ellipse cx="50" cy="50" rx="12" ry="2" fill="none" stroke="#1B5E20" stroke-width="1"/>
  <ellipse cx="50" cy="65" rx="12" ry="2" fill="none" stroke="#1B5E20" stroke-width="1"/>
  <ellipse cx="50" cy="80" rx="12" ry="2" fill="none" stroke="#1B5E20" stroke-width="1"/>
  
  <!-- Sidoskott -->
  <ellipse cx="35" cy="75" rx="6" ry="20" fill="#2E7D32"/>
  <ellipse cx="65" cy="70" rx="5" ry="15" fill="#388E3C"/>
  
  <!-- Taggar -->
  <g stroke="#8B4513" stroke-width="1" fill="none">
    <!-- På huvudkaktus -->
    <line x1="38" y1="30" x2="40" y2="28"/>
    <line x1="42" y1="25" x2="44" y2="23"/>
    <line x1="56" y1="25" x2="58" y2="23"/>
    <line x1="62" y1="30" x2="60" y2="28"/>
    
    <line x1="38" y1="45" x2="40" y2="43"/>
    <line x1="62" y1="45" x2="60" y2="43"/>
    <line x1="38" y1="60" x2="40" y2="58"/>
    <line x1="62" y1="60" x2="60" y2="58"/>
    
    <!-- På sidoskott -->
    <line x1="30" y1="70" x2="28" y2="68"/>
    <line x1="32" y1="80" x2="30" y2="78"/>
    <line x1="70" y1="65" x2="72" y2="63"/>
  </g>
  
  <!-- Text -->
  <text x="50" y="115" text-anchor="middle" fill="#2c3e50" font-family="Arial, sans-serif" font-size="8">🌵 Kaktus</text>
</svg>