<svg viewBox="0 0 100 120" xmlns="http://www.w3.org/2000/svg">
  <!-- Lavendel - karakteristiska lila blommor p친 l친nga stj칛lkar -->
  <!-- Kruka -->
  <ellipse cx="50" cy="105" rx="18" ry="8" fill="#8B4513"/>
  <rect x="32" y="97" width="36" height="16" fill="#8B4513" rx="2"/>
  
  <!-- Stj칛lkar -->
  <rect x="42" y="40" width="2" height="60" fill="#556B2F"/>
  <rect x="46" y="35" width="2" height="65" fill="#556B2F"/>
  <rect x="50" y="30" width="2" height="70" fill="#556B2F"/>
  <rect x="54" y="35" width="2" height="65" fill="#556B2F"/>
  <rect x="58" y="40" width="2" height="60" fill="#556B2F"/>
  <rect x="38" y="45" width="2" height="55" fill="#556B2F"/>
  <rect x="62" y="45" width="2" height="55" fill="#556B2F"/>
  
  <!-- Lavendelblommor (lila cylindrar) -->
  <ellipse cx="43" cy="32" rx="3" ry="8" fill="#9370DB"/>
  <ellipse cx="47" cy="27" rx="3" ry="8" fill="#8A2BE2"/>
  <ellipse cx="51" cy="22" rx="3" ry="8" fill="#9370DB"/>
  <ellipse cx="55" cy="27" rx="3" ry="8" fill="#8A2BE2"/>
  <ellipse cx="59" cy="32" rx="3" ry="8" fill="#9370DB"/>
  <ellipse cx="39" cy="37" rx="3" ry="8" fill="#8A2BE2"/>
  <ellipse cx="63" cy="37" rx="3" ry="8" fill="#9370DB"/>
  
  <!-- Sm친 blommuster p친 blommorna -->
  <g fill="#DDA0DD" opacity="0.8">
    <circle cx="43" cy="28" r="1"/>
    <circle cx="43" cy="32" r="1"/>
    <circle cx="43" cy="36" r="1"/>
    
    <circle cx="51" cy="18" r="1"/>
    <circle cx="51" cy="22" r="1"/>
    <circle cx="51" cy="26" r="1"/>
    
    <circle cx="55" cy="23" r="1"/>
    <circle cx="55" cy="27" r="1"/>
    <circle cx="55" cy="31" r="1"/>
  </g>
  
  <!-- Gr칬na blad vid basen -->
  <ellipse cx="35" cy="85" rx="12" ry="6" fill="#9ACD32" opacity="0.7"/>
  <ellipse cx="50" cy="90" rx="15" ry="5" fill="#9ACD32" opacity="0.7"/>
  <ellipse cx="65" cy="85" rx="12" ry="6" fill="#9ACD32" opacity="0.7"/>
  
  <!-- Text -->
  <text x="50" y="115" text-anchor="middle" fill="#2c3e50" font-family="Arial, sans-serif" font-size="8">游눞 Lavendel</text>
</svg>