<svg viewBox="0 0 100 120" xmlns="http://www.w3.org/2000/svg">
  <!-- Palmlilja - palmbladliknande växtsätt -->
  <!-- Kruka -->
  <ellipse cx="50" cy="105" rx="18" ry="8" fill="#8B4513"/>
  <rect x="32" y="97" width="36" height="16" fill="#8B4513" rx="2"/>
  
  <!-- Stam -->
  <rect x="47" y="70" width="6" height="30" fill="#8FBC8F"/>
  
  <!-- Palmblad i cirkel -->
  <g transform="translate(50,40)">
    <!-- Blad som strålar ut -->
    <ellipse cx="0" cy="-25" rx="4" ry="20" fill="#90EE90" transform="rotate(0)"/>
    <ellipse cx="0" cy="-25" rx="4" ry="20" fill="#90EE90" transform="rotate(45)"/>
    <ellipse cx="0" cy="-25" rx="4" ry="20" fill="#90EE90" transform="rotate(90)"/>
    <ellipse cx="0" cy="-25" rx="4" ry="20" fill="#90EE90" transform="rotate(135)"/>
    <ellipse cx="0" cy="-25" rx="4" ry="20" fill="#90EE90" transform="rotate(180)"/>
    <ellipse cx="0" cy="-25" rx="4" ry="20" fill="#90EE90" transform="rotate(225)"/>
    <ellipse cx="0" cy="-25" rx="4" ry="20" fill="#90EE90" transform="rotate(270)"/>
    <ellipse cx="0" cy="-25" rx="4" ry="20" fill="#90EE90" transform="rotate(315)"/>
    
    <!-- Centrum -->
    <circle cx="0" cy="0" r="6" fill="#8FBC8F"/>
  </g>
  
  <!-- Text -->
  <text x="50" y="115" text-anchor="middle" fill="#2c3e50" font-family="Arial, sans-serif" font-size="8">🌴 Palmlilja</text>
</svg>